HIERARCHY
ROOT Hips
{
	OFFSET 0.000000 103.266502 0.000000
	CHANNELS 6 Xposition Yposition Zposition Xrotation Yrotation Zrotation 
	JOINT Spine
	{
		OFFSET -0.002400 12.777504 0.315300
		CHANNELS 3 Xrotation Yrotation Zrotation
		JOINT Spine1
		{
			OFFSET -0.002067 5.816869 0.032633
			CHANNELS 3 Xrotation Yrotation Zrotation
			JOINT Spine1_split
			{
				OFFSET -0.002067 5.816869 0.032633
				CHANNELS 3 Xrotation Yrotation Zrotation
				JOINT Spine2
				{
					OFFSET -0.002067 5.816869 0.032633
					CHANNELS 3 Xrotation Yrotation Zrotation
					JOINT Neck
					{
						OFFSET -0.003700 21.199493 -0.826900
						CHANNELS 3 Xrotation Yrotation Zrotation
						JOINT Head
						{
							OFFSET 0.000000 20.442200 4.834800
							CHANNELS 3 Xrotation Yrotation Zrotation
							JOINT HeadTop_End
							{
								OFFSET 0.000000 34.668396 4.968400
								CHANNELS 3 Xrotation Yrotation Zrotation
								End Site
								{
									OFFSET 0.000000 0.000000 0.000000
								}
							}
						}
					}
					JOINT LeftShoulder
					{
						OFFSET 3.288150 8.794197 -1.372250
						CHANNELS 3 Xrotation Yrotation Zrotation
						JOINT LeftShoulder_split
						{
							OFFSET 3.288150 8.794197 -1.372250
							CHANNELS 3 Xrotation Yrotation Zrotation
							JOINT LeftArm
							{
								OFFSET 11.953299 -2.279007 -0.146200
								CHANNELS 3 Xrotation Yrotation Zrotation
								JOINT LeftForeArm
								{
									OFFSET 18.448900 0.000000 0.000000
									CHANNELS 3 Xrotation Yrotation Zrotation
									JOINT LeftHand
									{
										OFFSET 29.527798 0.000000 0.000000
										CHANNELS 3 Xrotation Yrotation Zrotation
										JOINT LeftHandThumb1
										{
											OFFSET 10.739754 -2.369614 9.225399
											CHANNELS 3 Xrotation Yrotation Zrotation
											JOINT LeftHandThumb2
											{
												OFFSET 4.926170 -2.844131 2.844125
												CHANNELS 3 Xrotation Yrotation Zrotation
												JOINT LeftHandThumb3
												{
													OFFSET 4.614891 -2.664413 2.664409
													CHANNELS 3 Xrotation Yrotation Zrotation
													JOINT LeftHandThumb4
													{
														OFFSET 4.432465 -2.559082 2.559083
														CHANNELS 3 Xrotation Yrotation Zrotation
														End Site
														{
															OFFSET 0.000000 0.000000 0.000000
														}
													}
												}
											}
										}
										JOINT LeftHandIndex1
										{
											OFFSET 26.467674 0.187653 6.405298
											CHANNELS 3 Xrotation Yrotation Zrotation
											JOINT LeftHandIndex2
											{
												OFFSET 8.792900 0.000000 0.000000
												CHANNELS 3 Xrotation Yrotation Zrotation
												JOINT LeftHandIndex3
												{
													OFFSET 10.075203 0.000000 0.000000
													CHANNELS 3 Xrotation Yrotation Zrotation
													End Site
													{
														OFFSET 0.000000 0.000000 0.000000
													}
												}
											}
										}
										JOINT LeftHandMiddle1
										{
											OFFSET 25.764404 0.000000 0.000000
											CHANNELS 3 Xrotation Yrotation Zrotation
											JOINT LeftHandMiddle2
											{
												OFFSET 9.393974 0.000000 0.000000
												CHANNELS 3 Xrotation Yrotation Zrotation
												JOINT LeftHandMiddle3
												{
													OFFSET 10.771950 0.000000 0.000000
													CHANNELS 3 Xrotation Yrotation Zrotation
													End Site
													{
														OFFSET 0.000000 0.000000 0.000000
													}
												}
											}
										}
										JOINT LeftHandRing1
										{
											OFFSET 24.660927 0.144547 -6.225808
											CHANNELS 3 Xrotation Yrotation Zrotation
											JOINT LeftHandRing2
											{
												OFFSET 9.393799 0.000000 0.000000
												CHANNELS 3 Xrotation Yrotation Zrotation
												JOINT LeftHandRing3
												{
													OFFSET 9.928497 0.000000 0.000000
													CHANNELS 3 Xrotation Yrotation Zrotation
													End Site
													{
														OFFSET 0.000000 0.000000 0.000000
													}
												}
											}
										}
										JOINT LeftHandPinky1
										{
											OFFSET 23.655350 0.125290 -12.815412
											CHANNELS 3 Xrotation Yrotation Zrotation
											JOINT LeftHandPinky2
											{
												OFFSET 8.425102 0.000000 0.000000
												CHANNELS 3 Xrotation Yrotation Zrotation
												JOINT LeftHandPinky3
												{
													OFFSET 8.147003 0.000000 0.000000
													CHANNELS 3 Xrotation Yrotation Zrotation
													End Site
													{
														OFFSET 0.000000 0.000000 0.000000
													}
												}
											}
										}
									}
								}
							}
						}
					}
					JOINT RightShoulder
					{
						OFFSET -3.249400 8.794197 -1.372250
						CHANNELS 3 Xrotation Yrotation Zrotation
						JOINT RightShoulder_split
						{
							OFFSET -3.249400 8.794197 -1.372250
							CHANNELS 3 Xrotation Yrotation Zrotation
							JOINT RightArm
							{
								OFFSET -11.953299 -2.279007 -0.146200
								CHANNELS 3 Xrotation Yrotation Zrotation
								JOINT RightForeArm
								{
									OFFSET -18.448900 0.000000 0.000000
									CHANNELS 3 Xrotation Yrotation Zrotation
									JOINT RightHand
									{
										OFFSET -29.527802 0.000000 0.000000
										CHANNELS 3 Xrotation Yrotation Zrotation
										JOINT RightHandThumb1
										{
											OFFSET -10.739754 -2.369614 9.225399
											CHANNELS 3 Xrotation Yrotation Zrotation
											JOINT RightHandThumb2
											{
												OFFSET -4.926170 -2.844131 2.844125
												CHANNELS 3 Xrotation Yrotation Zrotation
												JOINT RightHandThumb3
												{
													OFFSET -4.614891 -2.664413 2.664409
													CHANNELS 3 Xrotation Yrotation Zrotation
													JOINT RightHandThumb4
													{
														OFFSET -4.432465 -2.559082 2.559083
														CHANNELS 3 Xrotation Yrotation Zrotation
														End Site
														{
															OFFSET 0.000000 0.000000 0.000000
														}
													}
												}
											}
										}
										JOINT RightHandIndex1
										{
											OFFSET -26.467674 0.187653 6.405298
											CHANNELS 3 Xrotation Yrotation Zrotation
											JOINT RightHandIndex2
											{
												OFFSET -8.792900 0.000000 0.000000
												CHANNELS 3 Xrotation Yrotation Zrotation
												JOINT RightHandIndex3
												{
													OFFSET -10.075203 0.000000 0.000000
													CHANNELS 3 Xrotation Yrotation Zrotation
													End Site
													{
														OFFSET 0.000000 0.000000 0.000000
													}
												}
											}
										}
										JOINT RightHandMiddle1
										{
											OFFSET -25.764404 0.000000 0.000000
											CHANNELS 3 Xrotation Yrotation Zrotation
											JOINT RightHandMiddle2
											{
												OFFSET -9.393974 0.000000 0.000000
												CHANNELS 3 Xrotation Yrotation Zrotation
												JOINT RightHandMiddle3
												{
													OFFSET -10.771950 0.000000 0.000000
													CHANNELS 3 Xrotation Yrotation Zrotation
													End Site
													{
														OFFSET 0.000000 0.000000 0.000000
													}
												}
											}
										}
										JOINT RightHandRing1
										{
											OFFSET -24.660927 0.144547 -6.225808
											CHANNELS 3 Xrotation Yrotation Zrotation
											JOINT RightHandRing2
											{
												OFFSET -9.393799 0.000000 0.000000
												CHANNELS 3 Xrotation Yrotation Zrotation
												JOINT RightHandRing3
												{
													OFFSET -9.928497 0.000000 0.000000
													CHANNELS 3 Xrotation Yrotation Zrotation
													End Site
													{
														OFFSET 0.000000 0.000000 0.000000
													}
												}
											}
										}
										JOINT RightHandPinky1
										{
											OFFSET -23.655350 0.125290 -12.815412
											CHANNELS 3 Xrotation Yrotation Zrotation
											JOINT RightHandPinky2
											{
												OFFSET -8.425102 0.000000 0.000000
												CHANNELS 3 Xrotation Yrotation Zrotation
												JOINT RightHandPinky3
												{
													OFFSET -8.147003 0.000000 0.000000
													CHANNELS 3 Xrotation Yrotation Zrotation
													End Site
													{
														OFFSET 0.000000 0.000000 0.000000
													}
												}
											}
										}
									}
								}
							}
						}
					}
				}
			}
		}
	}
	JOINT LeftUpLeg
	{
		OFFSET 11.394100 -6.187798 -0.413800
		CHANNELS 3 Xrotation Yrotation Zrotation
		JOINT LeftLeg
		{
			OFFSET 0.430247 -32.302673 3.732800
			CHANNELS 3 Xrotation Yrotation Zrotation
			JOINT LeftFoot
			{
				OFFSET -0.430247 -48.264931 -6.423300
				CHANNELS 3 Xrotation Yrotation Zrotation
				JOINT LeftToeBase
				{
					OFFSET 4.230900 -16.068199 23.438400
					CHANNELS 3 Xrotation Yrotation Zrotation
					JOINT LeftToe_End
					{
						OFFSET 4.510700 0.695400 19.974600
						CHANNELS 3 Xrotation Yrotation Zrotation
						End Site
						{
							OFFSET 0.000000 0.000000 0.000000
						}
					}
				}
			}
		}
	}
	JOINT RightUpLeg
	{
		OFFSET -11.333700 -6.187798 -0.413800
		CHANNELS 3 Xrotation Yrotation Zrotation
		JOINT RightLeg
		{
			OFFSET -0.430392 -32.302628 3.733000
			CHANNELS 3 Xrotation Yrotation Zrotation
			JOINT RightFoot
			{
				OFFSET 0.430392 -48.264973 -6.423500
				CHANNELS 3 Xrotation Yrotation Zrotation
				JOINT RightToeBase
				{
					OFFSET -4.230900 -16.068199 23.438400
					CHANNELS 3 Xrotation Yrotation Zrotation
					JOINT RightToe_End
					{
						OFFSET -4.510700 0.695400 19.974600
						CHANNELS 3 Xrotation Yrotation Zrotation
						End Site
						{
							OFFSET 0.000000 0.000000 0.000000
						}
					}
				}
			}
		}
	}
}
MOTION
Frames: 6
Frame Time: 0.016667
-34.485329 98.989243 -33.201218 4.583474 0.570522 -2.051167 1.757310 1.099392 -5.097410 2.669528 2.765866 -1.144403 0.000000 0.000000 0.000000 2.711152 2.741217 -1.111869 -0.169238 1.518459 2.033062 -4.044500 8.985415 5.077304 0.000001 -0.000003 0.000000 1.433977 -4.062823 -11.219147 0.000000 0.000000 0.000000 -3.341575 24.380980 -39.671289 0.000047 -68.585843 0.000042 0.243762 -28.052572 -0.273038 -1.540048 3.690181 6.142348 3.946759 7.971407 0.752856 -0.575597 1.586252 2.542373 -0.000003 0.000001 -0.000002 -0.000004 0.000010 0.000002 -0.000000 0.000001 -0.000001 0.000001 -0.000002 -0.000000 -0.000004 -0.001918 0.015980 0.000000 0.001921 -0.015983 0.000000 -0.000001 -0.000002 -0.000004 0.000010 0.000000 0.000002 -0.000001 -0.000027 -0.000001 0.000003 0.000001 -0.018091 4.054251 0.511064 -0.018090 -4.054241 -0.511057 -0.000002 -0.000002 0.000002 0.748685 -2.655728 10.687281 0.000000 0.000000 0.000000 -17.948789 -16.241862 40.821264 -0.000001 12.072948 -0.000009 3.899469 8.202191 6.283302 -1.849257 -3.581794 -6.586136 4.645033 -8.656807 -0.231330 -1.269824 0.126053 -2.098685 -0.000001 -0.000000 0.000002 0.000001 -0.000002 0.000002 -0.000001 -0.000006 0.000016 -0.000000 -0.000001 0.000002 -0.000002 -0.000000 0.000007 -0.000002 -0.000001 0.000015 0.000001 -0.000001 -0.000000 0.000001 -0.000002 0.000000 0.000000 -0.000004 0.000018 -0.000001 -0.000000 0.000003 -0.000000 -0.000001 0.000001 -0.000001 0.000001 0.000068 -0.000000 -0.000001 0.000001 -48.844004 -1.399777 9.759399 49.030233 9.187141 1.022664 18.003518 12.416301 -3.553232 -12.060124 1.918826 -8.906943 -0.000000 0.000001 -0.000000 -4.928948 -11.420666 -8.000926 25.976012 -8.386925 -0.354291 -10.380228 -4.089282 14.779010 -11.815345 -0.008537 0.145792 -0.000000 -0.000000 0.000000 
-34.069046 99.373566 -33.285561 4.762270 -0.219913 -1.879432 1.577066 1.480985 -5.308925 2.374025 3.259592 -1.400063 0.000000 0.000000 0.000000 2.430395 3.238701 -1.364457 -0.224068 1.432988 2.227389 -4.033167 8.722013 5.409509 -0.000000 0.000002 0.000000 1.467532 -4.240643 -11.592415 0.000000 0.000000 0.000000 5.654171 26.367479 -43.866811 0.000023 -67.796731 0.000021 0.073323 -29.850215 1.113508 -1.540047 3.690183 6.142348 3.946758 7.971406 0.752857 -0.575600 1.586252 2.542372 -0.000004 -0.000003 -0.000001 -0.000003 0.000011 0.000003 -0.000001 0.000001 -0.000001 -0.000002 -0.000003 0.000000 -0.000004 -0.001917 0.015981 0.000001 0.001920 -0.015985 0.000001 -0.000001 -0.000001 -0.000002 0.000012 0.000003 0.000008 0.000001 -0.000025 0.000001 -0.000001 0.000002 -0.018090 4.054247 0.511066 -0.018089 -4.054241 -0.511058 -0.000000 0.000000 0.000001 0.734775 -2.719271 10.596596 0.000000 0.000000 0.000000 -18.801310 -15.324281 39.607051 -0.000003 12.657098 0.000005 3.908927 3.805294 10.426490 -1.849253 -3.581788 -6.586139 4.645032 -8.656806 -0.231332 -1.269824 0.126053 -2.098685 0.000001 -0.000000 0.000002 0.000002 -0.000000 -0.000004 -0.000002 -0.000003 0.000011 -0.000001 0.000000 -0.000004 0.000003 -0.000001 -0.000009 -0.000003 -0.000001 0.000012 0.000001 -0.000000 -0.000000 0.000002 -0.000000 -0.000005 0.000000 -0.000003 0.000016 0.000001 -0.000001 0.000001 0.000002 0.000001 -0.000005 -0.000003 0.000003 0.000064 -0.000001 -0.000000 -0.000002 -47.747920 -1.781900 11.178930 51.557133 9.635319 1.169569 16.250833 14.685817 -0.821890 -7.499388 1.925746 -15.228687 0.000000 0.000002 -0.000001 -5.146601 -11.235406 -8.844128 25.094638 -7.222085 -0.349106 -9.368632 -2.920562 14.878672 -12.477719 0.000486 -0.007586 -0.000000 0.000002 0.000000 
-33.619499 99.725533 -33.326397 5.088678 -0.868708 -1.742662 1.372208 1.819630 -5.461986 2.032629 3.712427 -1.607210 0.000000 0.000000 0.000000 2.103381 3.696493 -1.570159 -0.275675 1.345611 2.361042 -3.983146 8.395972 5.665072 0.000001 0.000001 0.000000 1.481605 -4.316640 -11.747585 0.000000 0.000000 0.000000 12.772037 27.916450 -48.290872 -0.000026 -66.123963 -0.000032 0.079356 -30.831600 0.943952 -1.540046 3.690185 6.142343 3.946762 7.971407 0.752855 -0.575599 1.586252 2.542367 -0.000004 0.000004 -0.000005 -0.000003 0.000009 -0.000002 -0.000000 0.000002 -0.000001 -0.000001 -0.000001 -0.000001 -0.000003 -0.001918 0.015976 -0.000001 0.001921 -0.015983 0.000000 0.000001 0.000000 -0.000004 0.000009 -0.000002 0.000002 0.000006 -0.000029 -0.000001 0.000002 -0.000000 -0.018091 4.054248 0.511063 -0.018087 -4.054246 -0.511057 -0.000001 0.000000 0.000001 0.715793 -2.807281 10.472894 0.000000 0.000000 0.000000 -19.463266 -14.733592 38.616667 -0.000009 13.178798 0.000019 4.426773 0.064399 14.071446 -1.849255 -3.581783 -6.586144 4.645032 -8.656805 -0.231334 -1.269824 0.126053 -2.098683 -0.000000 -0.000000 0.000001 -0.000001 0.000001 0.000006 -0.000000 -0.000003 0.000014 0.000000 0.000000 -0.000001 -0.000004 0.000002 0.000008 -0.000003 0.000001 0.000016 -0.000001 0.000000 -0.000000 -0.000002 0.000001 0.000005 0.000001 -0.000003 0.000015 -0.000001 -0.000000 0.000004 -0.000001 0.000001 0.000005 -0.000001 0.000004 0.000066 -0.000001 0.000000 -0.000001 -45.802084 -2.058367 12.765103 52.143761 9.948832 1.317784 15.239986 17.011474 1.228614 -6.932093 1.713534 -15.880735 -0.000001 0.000003 -0.000001 -5.300149 -11.085361 -9.554118 24.050715 -5.855909 -0.295403 -8.562248 -1.961461 14.708058 -12.885750 0.001682 -0.025551 -0.000000 0.000001 0.000000 
-33.140888 100.032997 -33.342476 5.520757 -1.295487 -1.652134 1.156992 2.111385 -5.540203 1.667891 4.119297 -1.757987 0.000000 0.000000 0.000000 1.751484 4.109059 -1.720881 -0.329442 1.250089 2.443576 -3.904388 7.989618 5.840145 0.000000 -0.000002 0.000000 1.475783 -4.286667 -11.679660 0.000000 0.000000 0.000000 17.858445 29.300357 -52.334378 -0.000005 -63.835296 -0.000008 0.424023 -30.787139 -0.397662 -1.540045 3.690179 6.142344 3.946758 7.971410 0.752856 -0.575595 1.586255 2.542375 0.000002 0.000000 -0.000001 0.000002 0.000010 -0.000001 0.000003 0.000001 0.000001 0.000000 -0.000001 -0.000001 -0.000001 -0.001918 0.015977 0.000001 0.001917 -0.015984 0.000002 0.000005 -0.000002 0.000001 0.000009 -0.000001 0.000004 0.000004 -0.000027 0.000001 0.000000 -0.000002 -0.018090 4.054249 0.511063 -0.018087 -4.054240 -0.511057 0.000001 0.000001 -0.000001 0.694852 -2.907718 10.339742 0.000000 0.000000 0.000000 -19.916138 -14.501851 37.786741 0.000004 13.690952 -0.000006 5.062887 -2.860963 16.812051 -1.849255 -3.581787 -6.586137 4.645032 -8.656805 -0.231331 -1.269824 0.126053 -2.098683 -0.000000 0.000000 -0.000001 -0.000000 -0.000001 -0.000008 -0.000001 -0.000003 0.000010 0.000000 -0.000001 -0.000002 0.000003 -0.000002 -0.000019 -0.000003 0.000001 0.000014 -0.000000 -0.000000 0.000003 0.000000 -0.000002 -0.000008 -0.000001 -0.000004 0.000016 -0.000000 -0.000001 0.000005 0.000000 -0.000002 -0.000007 -0.000002 0.000004 0.000067 -0.000000 0.000000 0.000002 -43.182519 -2.152478 14.471626 51.031072 10.039263 1.441546 14.635302 19.376862 2.815491 -6.680833 1.646158 -15.287278 0.000001 -0.000001 0.000000 -5.337414 -10.948827 -10.105538 22.846580 -4.121975 -0.179171 -7.876105 -1.541262 14.409971 -13.209718 0.002952 -0.046948 -0.000000 0.000000 0.000000 
-32.627029 100.262329 -33.342785 6.012774 -1.433553 -1.629647 0.941923 2.351742 -5.515952 1.297682 4.466678 -1.850171 0.000000 0.000000 0.000000 1.390940 4.462437 -1.814233 -0.382002 1.148459 2.483353 -3.801411 7.506036 5.941438 -0.000000 -0.000000 -0.000000 1.451636 -4.159455 -11.406986 0.000000 0.000000 0.000000 21.297290 30.658926 -55.705589 0.000028 -61.187423 0.000033 1.191381 -29.728453 -2.176629 -1.540046 3.690182 6.142346 3.946760 7.971403 0.752855 -0.575596 1.586256 2.542374 0.000001 0.000002 -0.000002 0.000000 0.000013 -0.000001 0.000003 0.000003 0.000001 -0.000000 -0.000001 0.000000 0.000001 -0.001914 0.015977 0.000001 0.001919 -0.015982 -0.000000 0.000005 -0.000003 0.000001 0.000012 -0.000000 0.000005 0.000004 -0.000029 -0.000000 0.000001 0.000000 -0.018088 4.054252 0.511062 -0.018086 -4.054247 -0.511054 -0.000002 0.000001 0.000001 0.674196 -3.020967 10.232317 0.000000 0.000000 0.000000 -20.144680 -14.588017 37.020892 0.000003 14.208002 -0.000010 5.443055 -5.085631 18.457849 -1.849254 -3.581787 -6.586140 4.645031 -8.656804 -0.231332 -1.269825 0.126053 -2.098689 0.000000 -0.000000 -0.000001 0.000000 0.000001 0.000002 -0.000001 -0.000003 0.000014 0.000000 0.000000 0.000000 0.000002 0.000000 -0.000014 -0.000003 0.000000 0.000014 0.000000 -0.000001 -0.000000 0.000000 0.000000 0.000004 -0.000000 -0.000003 0.000016 -0.000000 -0.000001 0.000003 -0.000000 0.000001 0.000005 -0.000003 0.000003 0.000065 -0.000001 0.000000 -0.000000 -40.160433 -2.004311 16.252580 48.573491 9.946670 1.532499 14.226660 21.660261 4.229877 -5.914831 1.515628 -14.484241 -0.000000 0.000002 -0.000001 -5.209808 -10.804625 -10.491450 21.539244 -2.577045 -0.058631 -7.361972 -1.293708 14.166198 -13.410156 0.004136 -0.068812 0.000000 0.000000 -0.000000 
-32.063370 100.376534 -33.333469 6.528051 -1.226067 -1.691974 0.732845 2.531522 -5.368220 0.935645 4.729538 -1.887954 0.000000 0.000000 0.000000 1.033656 4.731258 -1.854254 -0.441560 1.030675 2.502777 -3.693575 6.947909 5.993751 0.000000 0.000000 -0.000000 1.413560 -3.961265 -10.979309 0.000000 0.000000 0.000000 23.536388 32.038300 -58.288527 0.000016 -58.385557 0.000016 2.290352 -27.753255 -3.777306 -1.540047 3.690181 6.142346 3.946759 7.971405 0.752854 -0.575597 1.586254 2.542377 -0.000000 -0.000000 0.000002 -0.000002 0.000010 -0.000000 0.000002 0.000003 -0.000000 0.000001 -0.000000 0.000000 -0.000004 -0.001919 0.015978 0.000001 0.001923 -0.015987 0.000000 0.000000 0.000000 -0.000002 0.000012 0.000003 0.000000 0.000006 -0.000027 0.000001 0.000001 -0.000001 -0.018090 4.054248 0.511063 -0.018088 -4.054249 -0.511057 -0.000001 -0.000003 0.000001 0.656534 -3.133577 10.169169 0.000000 0.000000 0.000000 -20.170503 -14.903046 36.224339 0.000001 14.706342 0.000002 5.304924 -6.876358 19.061627 -1.849251 -3.581792 -6.586129 4.645032 -8.656807 -0.231333 -1.269825 0.126053 -2.098682 0.000000 0.000000 0.000000 0.000001 -0.000002 0.000002 0.000000 -0.000003 0.000015 0.000000 0.000000 0.000000 0.000001 -0.000002 -0.000001 -0.000004 0.000002 0.000021 -0.000001 0.000001 -0.000003 0.000001 -0.000003 0.000001 0.000000 -0.000004 0.000018 -0.000000 -0.000001 0.000004 0.000001 -0.000002 0.000001 -0.000002 0.000004 0.000070 -0.000001 -0.000000 0.000001 -37.056751 -1.608086 18.066699 45.201147 9.784246 1.593133 13.964486 23.632340 5.632181 -5.321875 1.224569 -12.919950 -0.000000 -0.000000 -0.000001 -4.909158 -10.643038 -10.719428 20.227481 -1.500854 0.029989 -7.080796 -1.100013 14.072364 -13.458795 0.005037 -0.087221 0.000000 0.000000 0.000000 
